<svg width="193" height="138" viewBox="0 0 193 138" fill="none" xmlns="http://www.w3.org/2000/svg">
<path fill-rule="evenodd" clip-rule="evenodd" d="M36.1895 27.7449C40.4733 36.6529 47.0676 43.2875 55.9727 47.6487C47.0726 51.9648 40.5186 58.5995 36.3101 67.5526C32.0881 58.5054 25.4535 51.8707 16.4062 47.6487C25.3046 43.2942 31.8989 36.6596 36.1895 27.7449Z" fill="#F5F5F5"/>
<path fill-rule="evenodd" clip-rule="evenodd" d="M0 51.3882C12.6683 51.9489 22.198 57.6587 28.5892 68.5176C30.6037 72.3895 31.8903 76.4909 32.4493 80.8218C32.5699 90.6325 32.6102 100.444 32.5699 110.255C30.4789 110.255 28.3882 110.255 26.2972 110.255C25.7611 100.775 21.5794 93.4164 13.7517 88.1801C9.52803 85.6163 4.94412 84.2894 0 84.1994C0 73.2624 0 62.3252 0 51.3882Z" fill="#F5F5F5"/>
<path fill-rule="evenodd" clip-rule="evenodd" d="M68.5168 51.3882C69.8035 51.3882 71.0904 51.3882 72.377 51.3882C72.377 62.3252 72.377 73.2624 72.377 84.1994C63.9172 84.549 57.0414 88.0069 51.7494 94.5735C48.2364 99.2013 46.427 104.429 46.321 110.255C44.2301 110.255 42.1393 110.255 40.0483 110.255C40.008 100.203 40.0483 90.15 40.1689 80.098C42.5579 66.1289 50.4791 56.9207 63.9329 52.4738C65.4927 52.1088 67.0206 51.7469 68.5168 51.3882Z" fill="#F5F5F5"/>
<path d="M90.2129 56.352H87.8745C87.8317 56.0495 87.7445 55.7807 87.6128 55.5458C87.4812 55.3073 87.3121 55.1045 87.1057 54.9372C86.8992 54.7699 86.6607 54.6418 86.3902 54.5528C86.1233 54.4638 85.8332 54.4193 85.52 54.4193C84.9541 54.4193 84.4611 54.5599 84.0411 54.8411C83.6212 55.1187 83.2955 55.5245 83.0641 56.0583C82.8328 56.5887 82.7171 57.2329 82.7171 57.991C82.7171 58.7705 82.8328 59.4254 83.0641 59.9557C83.299 60.486 83.6265 60.8865 84.0465 61.157C84.4665 61.4275 84.9523 61.5627 85.504 61.5627C85.8137 61.5627 86.1002 61.5218 86.3636 61.4399C86.6305 61.3581 86.8672 61.2388 87.0736 61.0822C87.2801 60.922 87.4509 60.7281 87.5862 60.5003C87.725 60.2725 87.8211 60.0127 87.8745 59.7208L90.2129 59.7315C90.1524 60.2333 90.0011 60.7174 89.7591 61.1837C89.5206 61.6464 89.1985 62.061 88.7927 62.4276C88.3905 62.7907 87.91 63.0789 87.3512 63.2925C86.796 63.5025 86.1678 63.6075 85.4666 63.6075C84.4914 63.6075 83.6194 63.3868 82.8506 62.9455C82.0853 62.5041 81.4803 61.8652 81.0354 61.0288C80.594 60.1924 80.3734 59.1798 80.3734 57.991C80.3734 56.7987 80.5976 55.7843 81.046 54.9479C81.4945 54.1114 82.1031 53.4743 82.8719 53.0366C83.6407 52.5952 84.5056 52.3745 85.4666 52.3745C86.1002 52.3745 86.6874 52.4635 87.2284 52.6415C87.773 52.8194 88.2553 53.0793 88.6753 53.421C89.0953 53.7591 89.437 54.1737 89.7003 54.6649C89.9673 55.1561 90.1381 55.7184 90.2129 56.352ZM101.918 57.991C101.918 59.1834 101.692 60.1977 101.24 61.0342C100.792 61.8706 100.18 62.5095 99.4037 62.9508C98.6314 63.3886 97.7629 63.6075 96.7984 63.6075C95.8267 63.6075 94.9547 63.3868 94.1823 62.9455C93.41 62.5041 92.7995 61.8652 92.3511 61.0288C91.9026 60.1924 91.6784 59.1798 91.6784 57.991C91.6784 56.7987 91.9026 55.7843 92.3511 54.9479C92.7995 54.1114 93.41 53.4743 94.1823 53.0366C94.9547 52.5952 95.8267 52.3745 96.7984 52.3745C97.7629 52.3745 98.6314 52.5952 99.4037 53.0366C100.18 53.4743 100.792 54.1114 101.24 54.9479C101.692 55.7843 101.918 56.7987 101.918 57.991ZM99.5746 57.991C99.5746 57.2187 99.4589 56.5673 99.2275 56.037C98.9997 55.5067 98.6776 55.1045 98.2612 54.8304C97.8448 54.5563 97.3572 54.4193 96.7984 54.4193C96.2396 54.4193 95.7519 54.5563 95.3355 54.8304C94.9191 55.1045 94.5952 55.5067 94.3638 56.037C94.136 56.5673 94.0221 57.2187 94.0221 57.991C94.0221 58.7634 94.136 59.4147 94.3638 59.945C94.5952 60.4754 94.9191 60.8776 95.3355 61.1516C95.7519 61.4257 96.2396 61.5627 96.7984 61.5627C97.3572 61.5627 97.8448 61.4257 98.2612 61.1516C98.6776 60.8776 98.9997 60.4754 99.2275 59.945C99.4589 59.4147 99.5746 58.7634 99.5746 57.991ZM112.776 52.524V63.458H110.779L106.023 56.5762H105.942V63.458H103.631V52.524H105.66L110.379 59.4005H110.475V52.524H112.776ZM114.686 63.458V52.524H122.054V54.43H116.998V57.0354H121.675V58.9413H116.998V61.552H122.075V63.458H114.686ZM133.539 56.352H131.201C131.158 56.0495 131.071 55.7807 130.939 55.5458C130.807 55.3073 130.638 55.1045 130.432 54.9372C130.225 54.7699 129.987 54.6418 129.716 54.5528C129.449 54.4638 129.159 54.4193 128.846 54.4193C128.28 54.4193 127.787 54.5599 127.367 54.8411C126.947 55.1187 126.622 55.5245 126.39 56.0583C126.159 56.5887 126.043 57.2329 126.043 57.991C126.043 58.7705 126.159 59.4254 126.39 59.9557C126.625 60.486 126.953 60.8865 127.373 61.157C127.793 61.4275 128.278 61.5627 128.83 61.5627C129.14 61.5627 129.426 61.5218 129.69 61.4399C129.957 61.3581 130.193 61.2388 130.4 61.0822C130.606 60.922 130.777 60.7281 130.912 60.5003C131.051 60.2725 131.147 60.0127 131.201 59.7208L133.539 59.7315C133.479 60.2333 133.327 60.7174 133.085 61.1837C132.847 61.6464 132.525 62.061 132.119 62.4276C131.717 62.7907 131.236 63.0789 130.677 63.2925C130.122 63.5025 129.494 63.6075 128.793 63.6075C127.818 63.6075 126.946 63.3868 126.177 62.9455C125.412 62.5041 124.806 61.8652 124.362 61.0288C123.92 60.1924 123.7 59.1798 123.7 57.991C123.7 56.7987 123.924 55.7843 124.372 54.9479C124.821 54.1114 125.429 53.4743 126.198 53.0366C126.967 52.5952 127.832 52.3745 128.793 52.3745C129.426 52.3745 130.014 52.4635 130.555 52.6415C131.099 52.8194 131.581 53.0793 132.001 53.421C132.421 53.7591 132.763 54.1737 133.027 54.6649C133.293 55.1561 133.464 55.7184 133.539 56.352ZM134.78 54.43V52.524H143.76V54.43H140.413V63.458H138.128V54.43H134.78ZM145.788 63.458H143.31L147.085 52.524H150.064L153.833 63.458H151.356L148.617 55.0226H148.532L145.788 63.458ZM145.633 59.1602H151.484V60.9648H145.633V59.1602ZM164.295 52.524V63.458H162.298L157.541 56.5762H157.461V63.458H155.149V52.524H157.178L161.898 59.4005H161.994V52.524H164.295ZM170.081 63.458H166.205V52.524H170.113C171.213 52.524 172.159 52.7429 172.953 53.1807C173.747 53.6149 174.357 54.2396 174.784 55.0546C175.215 55.8697 175.43 56.8449 175.43 57.9803C175.43 59.1193 175.215 60.0981 174.784 60.9167C174.357 61.7353 173.743 62.3635 172.943 62.8013C172.145 63.2391 171.191 63.458 170.081 63.458ZM168.517 61.4773H169.985C170.668 61.4773 171.243 61.3563 171.709 61.1142C172.179 60.8687 172.531 60.4896 172.766 59.9771C173.005 59.461 173.124 58.7954 173.124 57.9803C173.124 57.1724 173.005 56.5122 172.766 55.9996C172.531 55.4871 172.181 55.1098 171.715 54.8678C171.248 54.6258 170.673 54.5047 169.99 54.5047H168.517V61.4773ZM187.191 57.991C187.191 59.1834 186.965 60.1977 186.513 61.0342C186.064 61.8706 185.452 62.5095 184.676 62.9508C183.904 63.3886 183.035 63.6075 182.071 63.6075C181.099 63.6075 180.227 63.3868 179.455 62.9455C178.682 62.5041 178.072 61.8652 177.623 61.0288C177.175 60.1924 176.951 59.1798 176.951 57.991C176.951 56.7987 177.175 55.7843 177.623 54.9479C178.072 54.1114 178.682 53.4743 179.455 53.0366C180.227 52.5952 181.099 52.3745 182.071 52.3745C183.035 52.3745 183.904 52.5952 184.676 53.0366C185.452 53.4743 186.064 54.1114 186.513 54.9479C186.965 55.7843 187.191 56.7987 187.191 57.991ZM184.847 57.991C184.847 57.2187 184.731 56.5673 184.5 56.037C184.272 55.5067 183.95 55.1045 183.533 54.8304C183.117 54.5563 182.629 54.4193 182.071 54.4193C181.512 54.4193 181.024 54.5563 180.608 54.8304C180.191 55.1045 179.867 55.5067 179.636 56.037C179.408 56.5673 179.294 57.2187 179.294 57.991C179.294 58.7634 179.408 59.4147 179.636 59.945C179.867 60.4754 180.191 60.8776 180.608 61.1516C181.024 61.4257 181.512 61.5627 182.071 61.5627C182.629 61.5627 183.117 61.4257 183.533 61.1516C183.95 60.8776 184.272 60.4754 184.5 59.945C184.731 59.4147 184.847 58.7634 184.847 57.991ZM80.5656 81.458V70.524H82.8773V79.552H87.5648V81.458H80.5656ZM89.0957 81.458V70.524H96.4633V72.43H91.4074V75.0354H96.0843V76.9413H91.4074V79.552H96.4847V81.458H89.0957ZM100.613 70.524V81.458H98.3012V70.524H100.613ZM102.099 72.43V70.524H111.078V72.43H107.731V81.458H105.446V72.43H102.099ZM122.106 75.991C122.106 77.1834 121.88 78.1977 121.428 79.0342C120.979 79.8706 120.367 80.5095 119.591 80.9508C118.819 81.3886 117.95 81.6075 116.986 81.6075C116.014 81.6075 115.142 81.3868 114.37 80.9455C113.598 80.5041 112.987 79.8652 112.539 79.0288C112.09 78.1924 111.866 77.1798 111.866 75.991C111.866 74.7987 112.09 73.7843 112.539 72.9479C112.987 72.1114 113.598 71.4743 114.37 71.0366C115.142 70.5952 116.014 70.3745 116.986 70.3745C117.95 70.3745 118.819 70.5952 119.591 71.0366C120.367 71.4743 120.979 72.1114 121.428 72.9479C121.88 73.7843 122.106 74.7987 122.106 75.991ZM119.762 75.991C119.762 75.2187 119.646 74.5673 119.415 74.037C119.187 73.5067 118.865 73.1045 118.449 72.8304C118.032 72.5563 117.545 72.4193 116.986 72.4193C116.427 72.4193 115.939 72.5563 115.523 72.8304C115.107 73.1045 114.783 73.5067 114.551 74.037C114.324 74.5673 114.21 75.2187 114.21 75.991C114.21 76.7634 114.324 77.4147 114.551 77.945C114.783 78.4754 115.107 78.8776 115.523 79.1516C115.939 79.4257 116.427 79.5627 116.986 79.5627C117.545 79.5627 118.032 79.4257 118.449 79.1516C118.865 78.8776 119.187 78.4754 119.415 77.945C119.646 77.4147 119.762 76.7634 119.762 75.991ZM123.818 81.458V70.524H128.132C128.958 70.524 129.663 70.6717 130.246 70.9671C130.834 71.259 131.28 71.6737 131.586 72.2111C131.896 72.745 132.051 73.3732 132.051 74.0957C132.051 74.8218 131.894 75.4465 131.581 75.9697C131.268 76.4893 130.814 76.8879 130.22 77.1656C129.629 77.4432 128.913 77.582 128.073 77.582H125.185V75.7241H127.7C128.141 75.7241 128.508 75.6636 128.799 75.5426C129.091 75.4215 129.308 75.24 129.451 74.998C129.597 74.756 129.67 74.4552 129.67 74.0957C129.67 73.7327 129.597 73.4266 129.451 73.1774C129.308 72.9283 129.09 72.7396 128.794 72.6115C128.502 72.4798 128.134 72.414 127.689 72.414H126.13V81.458H123.818ZM129.723 76.4822L132.441 81.458H129.889L127.23 76.4822H129.723ZM133.685 81.458V70.524H141.052V72.43H135.996V75.0354H140.673V76.9413H135.996V79.552H141.074V81.458H133.685ZM148.822 73.6686C148.779 73.2379 148.596 72.9034 148.272 72.6649C147.948 72.4264 147.508 72.3072 146.953 72.3072C146.576 72.3072 146.257 72.3606 145.997 72.4674C145.737 72.5706 145.538 72.7147 145.399 72.8998C145.264 73.0849 145.196 73.2949 145.196 73.5298C145.189 73.7256 145.23 73.8964 145.319 74.0423C145.412 74.1883 145.538 74.3146 145.698 74.4214C145.858 74.5246 146.044 74.6154 146.254 74.6937C146.464 74.7684 146.688 74.8325 146.926 74.8859L147.909 75.1208C148.386 75.2276 148.823 75.3699 149.222 75.5479C149.621 75.7259 149.966 75.9447 150.258 76.2046C150.55 76.4644 150.776 76.7705 150.936 77.1229C151.099 77.4752 151.183 77.8792 151.187 78.3348C151.183 79.0039 151.012 79.5841 150.674 80.0752C150.34 80.5629 149.855 80.9419 149.222 81.2124C148.592 81.4794 147.832 81.6128 146.942 81.6128C146.06 81.6128 145.291 81.4776 144.636 81.2071C143.985 80.9366 143.476 80.5362 143.109 80.0058C142.746 79.472 142.555 78.8117 142.538 78.0251H144.775C144.8 78.3917 144.905 78.6978 145.09 78.9434C145.278 79.1854 145.529 79.3687 145.842 79.4933C146.159 79.6143 146.517 79.6748 146.916 79.6748C147.307 79.6748 147.647 79.6179 147.935 79.504C148.227 79.3901 148.453 79.2317 148.613 79.0288C148.773 78.826 148.854 78.5928 148.854 78.3294C148.854 78.0838 148.781 77.8774 148.635 77.7101C148.492 77.5428 148.282 77.4005 148.005 77.283C147.731 77.1656 147.394 77.0588 146.996 76.9627L145.805 76.6637C144.883 76.4395 144.155 76.0889 143.621 75.612C143.088 75.135 142.822 74.4926 142.826 73.6846C142.822 73.0226 142.999 72.4442 143.355 71.9495C143.714 71.4548 144.207 71.0686 144.833 70.791C145.46 70.5133 146.172 70.3745 146.969 70.3745C147.78 70.3745 148.489 70.5133 149.094 70.791C149.702 71.0686 150.176 71.4548 150.514 71.9495C150.852 72.4442 151.026 73.0173 151.037 73.6686H148.822Z" fill="#F5F5F5"/>
</svg>
